<svg width="50" height="45" viewBox="0 0 50 45" fill="none" xmlns="http://www.w3.org/2000/svg">
<path fill-rule="evenodd" clip-rule="evenodd" d="M37.495 27.5H37.4375C34.7475 27.5 32.5 29.9626 32.5 32.6526V39.5H17.5V32.7246C17.5 30.1271 15.42 27.8451 12.825 27.9626C9.38249 28.1151 6.31749 25.9398 5.35999 22.8198C2.90749 14.8223 13.055 9.43783 18.255 15.7153C13.9425 6.71283 27.665 0.331914 31.81 9.39941C32.73 11.4094 32.7525 13.6178 31.7475 15.7153C33.115 14.0653 35.15 12.9874 37.4525 12.9724L37.5 12.97C39.795 12.735 42.13 13.4402 43.415 15.3552C47.435 21.3452 43.1925 27.5 37.495 27.5ZM36.65 8.05542C34.8525 3.35292 30.3325 0 25 0C19.67 0 15.15 3.35292 13.3525 8.05542C5.73499 7.53292 0 13.545 0 20.4675C0 27.3725 5.5975 32.97 12.5 32.97V45H37.4375L37.5 32.97C44.405 32.97 50 27.3725 50 20.4675C50 13.5575 44.2775 7.53042 36.65 8.05542Z" fill="#004C92"/>
<ellipse cx="20" cy="24.5" rx="1" ry="1.5" fill="black"/>
<ellipse cx="20" cy="24.5" rx="1" ry="1.5" fill="black"/>
<ellipse cx="20" cy="24.5" rx="1" ry="1.5" fill="black"/>
<ellipse cx="20" cy="24.5" rx="1" ry="1.5" fill="black"/>
<ellipse cx="20" cy="24.5" rx="1" ry="1.5" fill="black"/>
<ellipse cx="30" cy="24.5" rx="1" ry="1.5" fill="black"/>
<ellipse cx="30" cy="24.5" rx="1" ry="1.5" fill="black"/>
<ellipse cx="30" cy="24.5" rx="1" ry="1.5" fill="black"/>
<ellipse cx="30" cy="24.5" rx="1" ry="1.5" fill="black"/>
<ellipse cx="30" cy="24.5" rx="1" ry="1.5" fill="black"/>
<path d="M22 28.5L23.4189 28.973C24.4452 29.3151 25.5548 29.3151 26.5811 28.973L28 28.5" stroke="black" stroke-linecap="round"/>
</svg>
