<svg width="35" height="35" viewBox="0 0 35 35" fill="none" xmlns="http://www.w3.org/2000/svg">
<circle cx="17.5" cy="17.5" r="17.5" fill="#CEE7FF"/>
<path d="M16.5 25.8854C16.5 26.4377 16.9477 26.8854 17.5 26.8854C18.0523 26.8854 18.5 26.4377 18.5 25.8854H16.5ZM18.2071 8.04289C17.8166 7.65237 17.1834 7.65237 16.7929 8.04289L10.4289 14.4069C10.0384 14.7974 10.0384 15.4305 10.4289 15.8211C10.8195 16.2116 11.4526 16.2116 11.8431 15.8211L17.5 10.1642L23.1569 15.8211C23.5474 16.2116 24.1805 16.2116 24.5711 15.8211C24.9616 15.4305 24.9616 14.7974 24.5711 14.4069L18.2071 8.04289ZM18.5 25.8854V8.75H16.5V25.8854H18.5Z" fill="white"/>
</svg>
