<svg width="20" height="16" viewBox="0 0 20 16" fill="none" xmlns="http://www.w3.org/2000/svg">
<path d="M1.31567 7C0.763389 7 0.315674 7.44772 0.315674 8C0.315674 8.55228 0.763389 9 1.31567 9V7ZM19.3912 8.70711C19.7817 8.31658 19.7817 7.68342 19.3912 7.29289L13.0272 0.928932C12.6367 0.538408 12.0036 0.538408 11.613 0.928932C11.2225 1.31946 11.2225 1.95262 11.613 2.34315L17.2699 8L11.613 13.6569C11.2225 14.0474 11.2225 14.6805 11.613 15.0711C12.0036 15.4616 12.6367 15.4616 13.0272 15.0711L19.3912 8.70711ZM1.31567 9H18.6841V7H1.31567V9Z" fill="#004C92"/>
</svg>
